<svg width="19" height="20" viewBox="0 0 19 20" fill="none" xmlns="http://www.w3.org/2000/svg">
<path d="M12.3333 19V11.4209C12.3333 11.1696 12.2338 10.9286 12.0567 10.7509C11.8796 10.5733 11.6394 10.4735 11.3889 10.4735H7.61111C7.36063 10.4735 7.12041 10.5733 6.94329 10.7509C6.76617 10.9286 6.66667 11.1696 6.66667 11.4209V19" fill="black"/>
<path d="M1 8.57865C0.999934 8.30302 1.05982 8.0307 1.17547 7.78068C1.29112 7.53065 1.45975 7.30895 1.66961 7.13103L8.28072 1.44762C8.62165 1.15858 9.05361 1 9.5 1C9.94639 1 10.3783 1.15858 10.7193 1.44762L17.3304 7.13103C17.5402 7.30895 17.7089 7.53065 17.8245 7.78068C17.9402 8.0307 18.0001 8.30302 18 8.57865V17.1052C18 17.6077 17.801 18.0897 17.4468 18.445C17.0925 18.8003 16.6121 19 16.1111 19H2.88889C2.38792 19 1.90748 18.8003 1.55324 18.445C1.19901 18.0897 1 17.6077 1 17.1052V8.57865Z" fill="black"/>
<path d="M12.3333 19V11.4209C12.3333 11.1696 12.2338 10.9286 12.0567 10.751C11.8796 10.5733 11.6394 10.4735 11.3889 10.4735H7.61111C7.36063 10.4735 7.12041 10.5733 6.94329 10.751C6.76617 10.9286 6.66667 11.1696 6.66667 11.4209V19M1 8.57865C0.999934 8.30302 1.05982 8.0307 1.17547 7.78068C1.29112 7.53065 1.45975 7.30895 1.66961 7.13103L8.28072 1.44762C8.62165 1.15858 9.05361 1 9.5 1C9.94638 1 10.3783 1.15858 10.7193 1.44762L17.3304 7.13103C17.5402 7.30895 17.7089 7.53065 17.8245 7.78068C17.9402 8.0307 18.0001 8.30302 18 8.57865V17.1052C18 17.6077 17.801 18.0897 17.4468 18.445C17.0925 18.8003 16.6121 19 16.1111 19H2.88889C2.38792 19 1.90748 18.8003 1.55324 18.445C1.19901 18.0897 1 17.6077 1 17.1052V8.57865Z" stroke="black" stroke-width="1.5" stroke-linecap="round" stroke-linejoin="round"/>
<path d="M5.72198 11.4211C8.69098 14.9307 10.343 15.0642 13.2775 11.4211" stroke="white" stroke-width="2" stroke-linecap="round"/>
</svg>
