<svg width="17" height="20" viewBox="0 0 17 20" fill="none" xmlns="http://www.w3.org/2000/svg">
<path fill-rule="evenodd" clip-rule="evenodd" d="M3.74952 4.6632C3.74952 3.42645 4.22368 2.24034 5.06768 1.36582C5.91168 0.4913 7.0564 0 8.25 0C9.4436 0 10.5883 0.4913 11.4323 1.36582C12.2763 2.24034 12.7505 3.42645 12.7505 4.6632C12.7505 5.89996 12.2763 7.08607 11.4323 7.96059C10.5883 8.83511 9.4436 9.32641 8.25 9.32641C7.0564 9.32641 5.91168 8.83511 5.06768 7.96059C4.22368 7.08607 3.74952 5.89996 3.74952 4.6632ZM0.000119416 19.2798C0.0338433 17.0357 0.917859 14.8954 2.46134 13.3208C4.00483 11.7462 6.08398 10.8637 8.25 10.8637C10.416 10.8637 12.4952 11.7462 14.0387 13.3208C15.5821 14.8954 16.4662 17.0357 16.4999 19.2798C16.5025 19.4308 16.4625 19.5794 16.3849 19.7073C16.3073 19.8352 16.1954 19.9369 16.0628 20C16.3849 19.7073 10.9464 20.0037 8.25 20H0.437166C0.304638 19.9369 0.192715 19.8352 0.115094 19.7073C0.0374723 19.5794 -0.0024821 19.4308 0.000119416 19.2798Z" fill="#BBBBBB"/>
</svg>
