<svg width="18" height="20" viewBox="0 0 18 20" fill="none" xmlns="http://www.w3.org/2000/svg">
<path d="M15.375 0.25C14.34 0.25 13.5 1.09 13.5 2.125V17.875C13.5 18.91 14.34 19.75 15.375 19.75H16.125C17.16 19.75 18 18.91 18 17.875V2.125C18 1.089 17.16 0.25 16.125 0.25H15.375ZM6.75 6.625C6.75 5.589 7.59 4.75 8.625 4.75H9.375C10.411 4.75 11.25 5.59 11.25 6.625V17.875C11.25 18.91 10.41 19.75 9.375 19.75H8.625C8.12772 19.75 7.6508 19.5525 7.29917 19.2008C6.94754 18.8492 6.75 18.3723 6.75 17.875V6.625ZM0 11.125C0 10.089 0.84 9.25 1.875 9.25H2.625C3.661 9.25 4.5 10.09 4.5 11.125V17.875C4.5 18.91 3.66 19.75 2.625 19.75H1.875C1.37772 19.75 0.900805 19.5525 0.549175 19.2008C0.197544 18.8492 0 18.3723 0 17.875V11.125Z" fill="#BBBBBB"/>
</svg>
