<svg width="20" height="20" viewBox="0 0 20 20" fill="none" xmlns="http://www.w3.org/2000/svg">
<path fill-rule="evenodd" clip-rule="evenodd" d="M9.07696 0.25C8.15996 0.25 7.37796 0.913 7.22696 1.817L7.04896 2.889C7.02896 3.009 6.93396 3.149 6.75196 3.237C6.40931 3.40171 6.07969 3.59226 5.76596 3.807C5.59996 3.922 5.43196 3.933 5.31596 3.89L4.29896 3.508C3.8832 3.35224 3.42566 3.34906 3.00777 3.49904C2.58989 3.64901 2.23879 3.94241 2.01696 4.327L1.09496 5.924C0.873047 6.30836 0.794673 6.75897 0.873775 7.19569C0.952878 7.6324 1.18433 8.0269 1.52696 8.309L2.36696 9.001C2.46196 9.079 2.53696 9.23 2.52096 9.431C2.49246 9.81013 2.49246 10.1909 2.52096 10.57C2.53596 10.77 2.46196 10.922 2.36796 11L1.52696 11.692C1.18433 11.9741 0.952878 12.3686 0.873775 12.8053C0.794673 13.242 0.873047 13.6926 1.09496 14.077L2.01696 15.674C2.23894 16.0584 2.59012 16.3516 3.00798 16.5014C3.42585 16.6512 3.88331 16.6478 4.29896 16.492L5.31796 16.11C5.43296 16.067 5.60096 16.079 5.76796 16.192C6.07996 16.406 6.40896 16.597 6.75296 16.762C6.93496 16.85 7.02996 16.99 7.04996 17.112L7.22796 18.183C7.37896 19.087 8.16096 19.75 9.07796 19.75H10.922C11.838 19.75 12.621 19.087 12.772 18.183L12.95 17.111C12.97 16.991 13.064 16.851 13.247 16.762C13.591 16.597 13.92 16.406 14.232 16.192C14.399 16.078 14.567 16.067 14.682 16.11L15.702 16.492C16.1175 16.6472 16.5746 16.6501 16.992 16.5002C17.4094 16.3502 17.7602 16.0571 17.982 15.673L18.905 14.076C19.1269 13.6916 19.2052 13.241 19.1261 12.8043C19.047 12.3676 18.8156 11.9731 18.473 11.691L17.633 10.999C17.538 10.921 17.463 10.77 17.479 10.569C17.5074 10.1899 17.5074 9.80913 17.479 9.43C17.463 9.23 17.538 9.078 17.632 9L18.472 8.308C19.18 7.726 19.363 6.718 18.905 5.923L17.983 4.326C17.761 3.94159 17.4098 3.6484 16.9919 3.49861C16.5741 3.34883 16.1166 3.35215 15.701 3.508L14.681 3.89C14.567 3.933 14.399 3.921 14.232 3.807C13.9186 3.5923 13.5893 3.40175 13.247 3.237C13.064 3.15 12.97 3.01 12.95 2.889L12.771 1.817C12.698 1.37906 12.4721 0.981216 12.1333 0.694267C11.7945 0.407318 11.3649 0.249889 10.921 0.25H9.07796H9.07696ZM9.99896 13.75C10.9935 13.75 11.9473 13.3549 12.6506 12.6517C13.3539 11.9484 13.749 10.9946 13.749 10C13.749 9.00544 13.3539 8.05161 12.6506 7.34835C11.9473 6.64509 10.9935 6.25 9.99896 6.25C9.0044 6.25 8.05057 6.64509 7.34731 7.34835C6.64405 8.05161 6.24896 9.00544 6.24896 10C6.24896 10.9946 6.64405 11.9484 7.34731 12.6517C8.05057 13.3549 9.0044 13.75 9.99896 13.75Z" fill="#BBBBBB"/>
</svg>
